<?xml version="1.0" encoding="UTF-8"?>
<svg width="53.847mm" height="8.2963mm" version="1.1" viewBox="0 0 53.847 8.2963" xmlns="http://www.w3.org/2000/svg" xmlns:cc="http://creativecommons.org/ns#" xmlns:dc="http://purl.org/dc/elements/1.1/" xmlns:rdf="http://www.w3.org/1999/02/22-rdf-syntax-ns#" xmlns:xlink="http://www.w3.org/1999/xlink">
 <defs>
  <linearGradient id="linearGradient848" x1="215.4" x2="419.16" y1="218.84" y2="218.84" gradientUnits="userSpaceOnUse">
   <stop stop-color="#757575" offset="0"/>
   <stop stop-color="#757575" stop-opacity="0" offset="1"/>
  </linearGradient>
 </defs>
 <metadata>
  <rdf:RDF>
   <cc:Work rdf:about="">
    <dc:format>image/svg+xml</dc:format>
    <dc:type rdf:resource="http://purl.org/dc/dcmitype/StillImage"/>
   </cc:Work>
  </rdf:RDF>
 </metadata>
 <g transform="translate(-81.591 -11.043)">
  <g transform="matrix(.26458 0 0 .26458 24.568 -42.711)" fill="url(#linearGradient848)" stroke="#757575" aria-label="MSTREAMS">
   <g fill="#8c8c8c" stroke="none" aria-label="MSTREAMS">
    <path d="m225.26 232.19h2.664v-23.688l9.972 23.688h2.304l10.008-23.688v23.688h2.664v-26.604h-4.14l-9.648 22.644-9.684-22.644h-4.14z"/>
    <path d="m256.4 224.74c0.252 4.788 3.528 7.92 8.316 7.92 4.608 0 8.028-3.348 8.028-7.884 0-2.34-0.972-4.428-2.628-5.688-1.116-0.792-2.232-1.296-4.968-2.124-2.412-0.72-3.204-1.044-3.924-1.656-0.756-0.684-1.26-1.872-1.26-3.096 0-2.7 1.944-4.644 4.608-4.644 2.7 0 4.536 1.836 4.752 4.752h2.772c-0.108-4.32-3.096-7.2-7.452-7.2-4.284 0-7.38 2.988-7.38 7.164 0 1.836 0.684 3.6 1.872 4.716 1.044 1.008 1.836 1.368 4.968 2.376 2.088 0.612 3.24 1.116 4.14 1.728 1.152 0.828 1.8 2.196 1.8 3.816 0 3.06-2.196 5.292-5.256 5.292-1.692 0-3.312-0.756-4.284-1.98-0.756-0.936-1.08-1.836-1.26-3.492z"/>
    <path d="m279.84 232.19h2.664v-24.192h6.084v-2.412h-14.832v2.412h6.084z"/>
    <path d="m301.83 222.25c5.112-0.54 7.848-3.348 7.848-8.136 0-3.312-1.404-5.832-3.996-7.236-1.656-0.9-3.924-1.296-7.452-1.296h-6.588v26.604h2.664v-24.192h3.744c2.808 0 4.68 0.288 6.12 0.972 1.8 0.864 2.808 2.664 2.808 5.076 0 3.024-1.368 4.932-4.032 5.616-1.26 0.324-2.988 0.468-5.94 0.468l8.964 12.06h3.312z"/>
    <path d="m314 232.19h14.544v-2.412h-11.88v-9.828h11.484v-2.412h-11.484v-9.54h11.88v-2.412h-14.544z"/>
    <path d="m331.28 232.19h2.808l3.888-8.964h12.384l3.852 8.964h2.916l-11.448-26.604h-2.988zm7.704-11.376 5.22-12.204 5.112 12.204z"/>
    <path d="m360.26 232.19h2.664v-23.688l9.972 23.688h2.304l10.008-23.688v23.688h2.664v-26.604h-4.14l-9.648 22.644-9.684-22.644h-4.14z"/>
    <path d="m391.4 224.74c0.252 4.788 3.528 7.92 8.316 7.92 4.608 0 8.028-3.348 8.028-7.884 0-2.34-0.972-4.428-2.628-5.688-1.116-0.792-2.232-1.296-4.968-2.124-2.412-0.72-3.204-1.044-3.924-1.656-0.756-0.684-1.26-1.872-1.26-3.096 0-2.7 1.944-4.644 4.608-4.644 2.7 0 4.536 1.836 4.752 4.752h2.772c-0.108-4.32-3.096-7.2-7.452-7.2-4.284 0-7.38 2.988-7.38 7.164 0 1.836 0.684 3.6 1.872 4.716 1.044 1.008 1.836 1.368 4.968 2.376 2.088 0.612 3.24 1.116 4.14 1.728 1.152 0.828 1.8 2.196 1.8 3.816 0 3.06-2.196 5.292-5.256 5.292-1.692 0-3.312-0.756-4.284-1.98-0.756-0.936-1.08-1.836-1.26-3.492z"/>
   </g>
  </g>
 </g>
</svg>
